<svg xmlns="http://www.w3.org/2000/svg" version="1.1" width="119.99999999999999" height="119.99999999999999" viewBox="0 0 119.99999999999999 119.99999999999999">
<desc>59 59 0 0 119.99999999999999 119.99999999999999 0 0 119.99999999999999 119.99999999999999</desc>
<metadata>
<symbolID>25341500</symbolID>
<anchor>59 59</anchor>
<symbolBounds>0 0 119.99999999999999 119.99999999999999</symbolBounds>
<imageBounds>0 0 119.99999999999999 119.99999999999999</imageBounds>
</metadata>
<g transform="translate(-42.718060882397864,-72.5858515734113) scale(0.33519553072625696,0.33519553072625696)"><g id="0_000_0">        <path d="M392.227,311.404   c46.947,0,85.006,37.841,85.006,84.52s-38.059,84.521-85.006,84.521l-1.479,0.479c0,46.947-37.841,85.005-84.521,85.005   c-46.678,0-84.52-38.058-84.52-85.005l-1.48-0.479c-46.947,0-85.005-37.842-85.005-84.521s38.058-84.52,85.005-84.52l1.48-2.48   c0-46.947,37.841-85.005,84.52-85.005c46.68,0,84.521,38.058,84.521,85.005" fill="#FFFF80" stroke="#000000" stroke-dasharray="0,34"  stroke-linecap="round" stroke-miterlimit="10" stroke-width="17"/>    </g><g><g id="00000000">        <text font-family="sans-serif" font-size="288" text-anchor="middle" x="306" y="501">?</text>    </g><g id="151">        <path d="   M495.119,566.25c-55.511,31.977-119.899,50.268-188.563,50.268s-133.052-18.291-188.563-50.268l-0.044,0.193h377.214" fill="none" stroke="#000000" stroke-linecap="round" stroke-linejoin="round" stroke-miterlimit="10" stroke-width="5"/>    </g><g id="152">        <path d="   M501.283,589.795c-0.012-15.354-12.462-27.796-27.817-27.796c-15.363,0-27.818,12.455-27.818,27.818   c0,15.362-12.454,27.817-27.817,27.817s-27.818-12.455-27.818-27.817c0-0.008,0-0.016,0-0.022h-0.002   c-0.011-15.354-12.462-27.796-27.817-27.796c-15.363,0-27.817,12.455-27.817,27.818c0,15.362-12.455,27.817-27.818,27.817   c-15.364,0-27.818-12.455-27.818-27.817c0-0.008,0-0.016-0.001-0.022c-0.012-15.354-12.462-27.796-27.818-27.796   c-15.363,0-27.818,12.455-27.818,27.818c0,15.362-12.455,27.817-27.818,27.817c-15.363,0-27.818-12.455-27.818-27.817   c0-0.008,0-0.016,0-0.022c-0.012-15.354-12.462-27.796-27.818-27.796c-15.363,0-27.818,12.455-27.818,27.818" fill="none" stroke="#000000" stroke-linecap="round" stroke-linejoin="round" stroke-miterlimit="10" stroke-width="5"/>    </g></g></g>
</svg>