<svg xmlns="http://www.w3.org/2000/svg" version="1.2" baseProfile="tiny" width="79.65" height="174.15" viewBox="41 1 118 258"><path d="M45,45 l110,0 0,110 -110,0 z" stroke-width="4" stroke="black" fill="rgb(170,255,170)" fill-opacity="1" ></path><path d="M100,100 L130,88 c15,0 15,24 0,24 L100,100 70,112 c-15,0 -15,-24 0,-24 Z" stroke-width="3" stroke="none" fill="black" ></path><path d="m 80,65 20,13 20,-13 0,-5 -20,10 -20,-10 z" stroke-width="3" stroke="none" fill="black" ></path><path d="M45,155 L45,255" stroke-width="4" stroke="black" fill="none" ></path><g transform="translate(0,0)" stroke-width="4" stroke="black" fill="none" ><path d="M70,35 l25,-25 m0,25 l-25,-25   M105,35 l25,-25 m0,25 l-25,-25" ></path></g></svg>