<svg xmlns="http://www.w3.org/2000/svg" version="1.2" baseProfile="tiny" width="98.8875" height="193.3875" viewBox="26.75 -13.25 146.5 286.5"><path d="M63,63 C63,20 137,20 137,63 C180,63 180,137 137,137 C137,180 63,180 63,137 C20,137 20,63 63,63 Z" stroke-width="4" stroke="black" fill="rgb(255,255,128)" fill-opacity="1" ></path><path d="m 74,120 c 0,-15 13.2,-32.9 65,-36  m -13,36 C 126,105 113,87.1 61.5,84" stroke-width="3" stroke="black" fill="none" ></path><circle cx="65" cy="90" r="6" stroke-width="3" stroke="black" fill="black" ></circle><circle cx="135" cy="90" r="6" stroke-width="3" stroke="black" fill="black" ></circle><path d="M30.75,100 L30.75,269.25" stroke-width="4" stroke="black" fill="none" ></path><g transform="translate(0,0)" stroke-width="4" stroke="black" fill="none" ><path d="M90,20.75L90,-4.25" ></path><path d="M110,20.75L110,-4.25" ></path></g></svg>